<?xml version="1.0" standalone="no"?>
<!DOCTYPE svg PUBLIC "-//W3C//DTD SVG 20010904//EN"
 "http://www.w3.org/TR/2001/REC-SVG-20010904/DTD/svg10.dtd">
<svg version="1.0" xmlns="http://www.w3.org/2000/svg"
 width="1024.000000pt" height="1024.000000pt" viewBox="0 0 1024.000000 1024.000000"
 preserveAspectRatio="xMidYMid meet">

<g transform="translate(0.000000,1024.000000) scale(0.100000,-0.100000)"
fill="#000000" stroke="none">
<path d="M2263 8909 c-302 -27 -487 -174 -559 -444 -18 -68 -19 -174 -19
-3280 l0 -3210 23 -65 c38 -105 72 -158 144 -225 48 -44 90 -72 145 -96 l78
-34 2150 -3 c1512 -2 2169 1 2214 8 115 20 228 74 317 152 33 30 38 31 122 29
96 -2 315 22 402 44 30 8 67 16 82 19 14 2 46 13 70 24 24 10 56 22 73 26 56
14 308 135 430 208 218 128 490 410 634 658 133 227 211 444 263 725 29 161
32 433 5 580 -46 250 -84 369 -181 568 -75 153 -117 220 -226 361 -165 214
-435 435 -660 539 -171 79 -217 99 -249 106 -20 5 -99 25 -176 44 -77 20 -191
41 -252 48 l-113 12 0 1351 c0 1288 -1 1355 -19 1428 -26 106 -74 191 -151
266 -70 69 -112 94 -230 137 l-75 28 -2085 1 c-1147 0 -2118 -2 -2157 -5z
m4270 -229 c108 -34 191 -122 224 -240 9 -35 12 -350 13 -1392 0 -1316 0
-1348 -19 -1348 -75 0 -248 -27 -361 -56 -74 -20 -138 -38 -142 -40 -4 -3 -16
-7 -26 -9 -10 -2 -38 -12 -63 -23 -24 -11 -78 -36 -120 -55 -68 -31 -261 -145
-317 -188 -118 -90 -329 -297 -392 -384 -24 -33 -47 -62 -50 -65 -38 -29 -201
-332 -247 -458 -53 -146 -71 -220 -99 -412 -22 -150 -25 -195 -20 -312 4 -75
11 -163 16 -195 6 -32 14 -95 20 -139 31 -247 203 -614 407 -871 101 -127 250
-272 363 -354 107 -78 397 -239 430 -239 6 0 35 -11 63 -24 29 -13 100 -39
159 -57 100 -32 115 -40 85 -45 -7 -1 -41 -7 -77 -13 -45 -8 -693 -11 -2136
-11 -2044 0 -2072 0 -2129 20 -112 38 -192 124 -214 230 -9 42 -11 817 -9
3230 3 3069 4 3177 22 3225 40 109 123 188 233 225 56 18 127 19 2189 19 2108
1 2133 1 2197 -19z m635 -3201 l62 -13 0 -253 c0 -238 -1 -254 -17 -249 -77
24 -169 37 -293 42 -124 5 -161 3 -255 -15 -60 -11 -113 -21 -117 -21 -5 0 -8
112 -8 249 l0 249 68 11 c37 6 78 13 92 15 48 9 406 -3 468 -15z m-838 -336
l-1 -268 -81 -45 c-45 -25 -86 -49 -92 -55 -6 -5 -40 -32 -74 -59 -35 -27 -88
-74 -117 -105 -54 -56 -135 -159 -135 -171 0 -4 -11 -20 -24 -35 -26 -30 -40
-55 -56 -97 l-10 -28 -264 0 -264 0 18 58 c27 84 106 245 168 342 73 113 178
235 298 347 203 188 348 276 632 382 1 1 2 -119 2 -266z m1151 253 c86 -26
356 -173 429 -233 262 -215 353 -315 475 -519 78 -131 136 -244 155 -304 4
-14 11 -33 15 -42 7 -17 -10 -18 -264 -18 l-271 0 -21 41 c-43 85 -141 213
-247 323 -66 68 -162 139 -264 195 l-53 30 -3 270 c-1 149 -1 271 0 271 2 0
24 -7 49 -14z m-459 -611 c262 -53 411 -131 596 -310 141 -136 257 -346 298
-540 77 -363 -40 -711 -330 -982 -94 -87 -273 -195 -386 -231 -77 -25 -246
-52 -327 -52 -78 0 -223 25 -302 51 -37 12 -66 21 -66 20 0 -2 -40 19 -90 45
-182 95 -286 188 -405 360 -77 111 -114 189 -156 324 -35 117 -38 133 -38 255
0 133 9 201 46 315 59 185 141 312 303 468 104 101 126 118 218 161 111 53
260 104 347 119 86 15 211 13 292 -3z m-1376 -737 c-54 -197 -54 -424 0 -620
5 -17 -11 -18 -244 -18 l-250 0 -6 28 c-3 15 -11 101 -17 192 -9 128 -9 194 1
295 7 72 14 133 17 138 2 4 117 7 255 7 l250 0 -6 -22z m2986 -18 c13 -59 12
-478 -2 -552 l-12 -68 -254 0 c-290 0 -267 -9 -239 97 29 109 18 407 -21 541
l-6 22 263 -2 263 -3 8 -35z m-2872 -887 c127 -225 303 -405 504 -514 l79 -42
-8 -261 c-4 -144 -8 -263 -11 -265 -13 -13 -335 147 -413 206 -9 6 -53 40 -99
74 -45 34 -133 114 -195 179 -99 103 -134 149 -236 308 -51 79 -171 338 -171
368 0 2 117 4 259 4 l259 0 32 -57z m2800 51 c0 -13 -64 -165 -97 -229 -19
-38 -79 -135 -132 -215 -112 -169 -286 -357 -416 -449 -104 -74 -224 -147
-261 -161 -16 -6 -42 -17 -59 -24 -16 -8 -55 -24 -85 -36 -30 -12 -61 -24 -67
-27 -10 -4 -13 53 -13 265 l0 270 68 43 c113 71 183 126 269 209 46 44 83 83
83 85 0 3 20 30 44 60 25 30 64 90 88 134 l43 81 268 0 c147 0 267 -3 267 -6z
m-1925 -711 c93 -28 370 -25 482 5 45 12 89 22 98 22 13 0 15 -33 15 -259 l0
-258 -62 -14 c-86 -19 -445 -19 -550 0 l-78 14 0 259 c0 242 1 259 18 254 9
-3 44 -13 77 -23z"/>
<path d="M5435 8004 c-26 -5 -176 -36 -332 -69 -67 -14 -129 -25 -139 -25 -9
0 -65 -11 -123 -25 -58 -13 -162 -36 -231 -50 -231 -48 -314 -66 -420 -90 -58
-13 -123 -26 -145 -29 -22 -3 -105 -19 -185 -36 -80 -17 -190 -40 -245 -50
-108 -21 -262 -52 -365 -74 -36 -8 -103 -22 -150 -31 -125 -25 -208 -54 -268
-92 -103 -65 -149 -118 -194 -225 l-23 -53 -3 -2003 c-2 -2183 -5 -2078 53
-2175 33 -56 102 -130 145 -154 52 -31 140 -53 207 -53 56 0 180 20 373 60
206 42 350 70 470 91 69 12 134 23 145 26 11 2 81 15 155 28 74 14 180 34 235
45 55 11 167 34 249 50 82 16 151 32 155 36 10 10 13 178 3 192 -10 15 -30 12
-269 -40 -73 -15 -144 -28 -157 -28 -14 0 -64 -9 -113 -20 -166 -37 -599 -121
-718 -140 -33 -5 -125 -23 -205 -40 -80 -18 -192 -39 -250 -47 l-105 -15 -52
27 c-61 32 -78 54 -98 132 -13 50 -15 310 -15 2011 0 1507 3 1964 12 1996 17
58 91 127 165 155 32 12 94 28 138 36 44 8 112 21 150 30 39 9 90 19 115 24
128 23 293 57 445 92 94 21 222 47 285 59 128 23 456 89 595 120 105 23 334
68 385 76 19 3 60 11 90 19 47 11 129 27 145 27 2 0 26 6 52 14 26 8 84 17
129 20 66 6 92 3 133 -12 68 -24 116 -65 146 -125 l25 -48 0 -971 0 -970 79 0
c44 0 91 4 105 10 l26 10 0 957 c0 610 -4 974 -11 1002 -25 108 -115 234 -203
285 -76 44 -169 66 -275 65 -53 -1 -105 -3 -116 -5z"/>
<path d="M4265 6639 c-12 -6 -77 -67 -145 -137 -777 -791 -764 -778 -822 -887
-71 -138 -81 -184 -76 -344 4 -123 8 -144 36 -216 124 -316 435 -488 761 -420
40 9 89 22 108 30 20 8 39 15 44 15 5 0 9 -74 9 -165 l0 -165 -123 0 c-156 0
-157 -1 -157 -123 l0 -87 380 0 380 0 6 26 c8 30 0 156 -10 173 -5 7 -51 11
-137 11 l-129 0 0 170 c0 94 4 170 8 170 4 0 12 -4 17 -9 6 -5 39 -19 75 -31
83 -27 236 -37 310 -20 30 7 64 13 75 15 12 2 61 22 109 46 155 75 280 222
339 399 19 55 22 87 22 210 -1 138 -2 149 -32 228 -18 45 -53 116 -79 158 -45
73 -193 239 -329 369 -34 33 -107 107 -160 165 -178 190 -390 402 -417 416
-31 16 -36 16 -63 3z m405 -643 c414 -433 427 -449 464 -592 22 -87 20 -149
-10 -240 -58 -180 -179 -292 -356 -330 -42 -9 -90 -13 -113 -9 -22 3 -58 9
-80 12 -71 10 -182 76 -248 147 -20 22 -31 28 -41 21 -7 -6 -38 -30 -67 -54
-80 -66 -178 -108 -276 -120 -46 -6 -89 -9 -95 -6 -7 2 -30 6 -50 9 -48 7
-116 34 -151 60 -114 84 -174 166 -213 296 -33 109 -6 257 68 370 20 30 188
210 374 399 187 190 357 364 379 388 l40 43 60 -64 c33 -35 175 -184 315 -330z"/>
<path d="M6833 4378 c-38 -8 -68 -35 -284 -256 -132 -136 -254 -266 -270 -289
-24 -35 -29 -52 -29 -103 0 -33 6 -73 14 -88 14 -27 377 -389 500 -500 l60
-53 75 2 76 1 259 262 c162 164 265 276 277 301 24 51 24 109 0 160 -26 55
-526 551 -563 559 -59 13 -74 13 -115 4z m302 -463 c27 -28 80 -78 116 -112
l67 -61 -213 -212 c-117 -117 -215 -213 -218 -214 -3 0 -103 95 -221 213
l-215 213 56 52 c31 28 129 121 217 207 l161 157 100 -97 c54 -53 122 -119
150 -146z"/>
</g>
</svg>
